<svg xmlns="http://www.w3.org/2000/svg" width="920" height="680" viewBox="0 0 920 680">
  <defs>
    <linearGradient id="bgLarge" x1="0%" y1="0%" x2="100%" y2="100%">
      <stop offset="0%" style="stop-color:#1a73e8"/>
      <stop offset="100%" style="stop-color:#0d47a1"/>
    </linearGradient>
  </defs>

  <!-- Background -->
  <rect width="920" height="680" fill="url(#bgLarge)"/>

  <!-- Large Bridge Icon -->
  <g transform="translate(360, 120)">
    <path d="M0 120 Q100 30 200 120" stroke="white" stroke-width="12" fill="none" stroke-linecap="round"/>
    <line x1="40" y1="120" x2="40" y2="160" stroke="white" stroke-width="10" stroke-linecap="round"/>
    <line x1="100" y1="70" x2="100" y2="160" stroke="white" stroke-width="10" stroke-linecap="round"/>
    <line x1="160" y1="120" x2="160" y2="160" stroke="white" stroke-width="10" stroke-linecap="round"/>
    <!-- AI network dots -->
    <circle cx="50" cy="45" r="10" fill="rgba(255,255,255,0.8)"/>
    <circle cx="100" cy="30" r="10" fill="rgba(255,255,255,0.8)"/>
    <circle cx="150" cy="45" r="10" fill="rgba(255,255,255,0.8)"/>
    <line x1="50" y1="45" x2="100" y2="30" stroke="rgba(255,255,255,0.5)" stroke-width="3"/>
    <line x1="100" y1="30" x2="150" y2="45" stroke="rgba(255,255,255,0.5)" stroke-width="3"/>
  </g>

  <!-- Title -->
  <text x="460" y="370" text-anchor="middle" font-family="system-ui, -apple-system, sans-serif" font-size="56" font-weight="700" fill="white">FranzAI Bridge</text>

  <!-- Tagline -->
  <text x="460" y="430" text-anchor="middle" font-family="system-ui, -apple-system, sans-serif" font-size="24" fill="rgba(255,255,255,0.9)">Secure CORS Bypass &amp; API Key Injection</text>

  <!-- Features -->
  <g transform="translate(160, 480)" font-family="system-ui, -apple-system, sans-serif" font-size="18" fill="rgba(255,255,255,0.85)">
    <text x="0" y="0">&#x2713; Bypass CORS restrictions securely</text>
    <text x="0" y="40">&#x2713; Auto-inject API keys (OpenAI, Anthropic, Google, Mistral)</text>
    <text x="0" y="80">&#x2713; Real-time request inspector</text>
    <text x="0" y="120">&#x2713; DevTools-style network panel</text>
  </g>

  <!-- Version -->
  <rect x="410" y="630" width="100" height="30" rx="15" fill="rgba(255,255,255,0.2)"/>
  <text x="460" y="651" text-anchor="middle" font-family="monospace" font-size="14" fill="white">v2.0</text>
</svg>